<svg width="588" height="915" viewBox="0 0 588 915" fill="none" xmlns="http://www.w3.org/2000/svg">
<path d="M0.969198 831.5C0.417175 831.517 -0.016537 831.979 0.000474495 832.531L0.277693 841.527C0.294704 842.079 0.755997 842.512 1.30802 842.495C1.86004 842.478 2.29376 842.017 2.27674 841.465L2.03033 833.469L10.0265 833.222C10.5786 833.205 11.0123 832.744 10.9953 832.192C10.9782 831.64 10.517 831.206 9.96493 831.223L0.969198 831.5ZM0.315009 833.229C2.35868 835.15 4.39126 837.034 6.41281 838.882L7.76197 837.405C5.74753 835.564 3.7219 833.687 1.68499 831.771L0.315009 833.229ZM18.4104 849.525C22.3658 852.927 26.2777 856.185 30.1466 859.3L31.401 857.742C27.5495 854.641 23.6542 851.398 19.7146 848.009L18.4104 849.525ZM43.0661 869.297C47.3501 872.475 51.5794 875.474 55.755 878.299L56.8754 876.642C52.725 873.835 48.5194 870.853 44.2577 867.691L43.0661 869.297ZM69.2603 886.94C73.875 889.722 78.4215 892.283 82.9007 894.63L83.8288 892.858C79.3867 890.531 74.875 887.989 70.2927 885.227L69.2603 886.94ZM97.347 901.562C102.257 903.698 107.083 905.567 111.826 907.177L112.469 905.283C107.781 903.692 103.007 901.843 98.1447 899.728L97.347 901.562ZM127.371 911.608C132.67 912.822 137.86 913.699 142.942 914.254L143.159 912.265C138.157 911.72 133.044 910.856 127.817 909.658L127.371 911.608ZM158.707 914.944C164.153 914.815 169.466 914.298 174.648 913.412L174.31 911.441C169.226 912.31 164.01 912.818 158.66 912.944L158.707 914.944ZM190.06 909.581C195.093 907.926 199.99 905.905 204.755 903.542L203.866 901.75C199.184 904.073 194.375 906.057 189.435 907.681L190.06 909.581ZM218.559 895.507C222.876 892.609 227.075 889.417 231.159 885.948L229.864 884.424C225.834 887.847 221.695 890.993 217.444 893.847L218.559 895.507ZM242.711 875.104C246.348 871.354 249.886 867.375 253.329 863.184L251.783 861.914C248.373 866.066 244.871 870.003 241.275 873.712L242.711 875.104ZM262.928 850.617C265.933 846.398 268.859 842.012 271.709 837.47L270.015 836.407C267.184 840.918 264.28 845.271 261.299 849.457L262.928 850.617ZM279.859 823.703C282.376 819.203 284.829 814.578 287.22 809.839L285.434 808.938C283.056 813.654 280.616 818.253 278.114 822.727L279.859 823.703ZM294.105 795.513C296.275 790.778 298.389 785.948 300.45 781.03L298.605 780.257C296.552 785.156 294.447 789.966 292.287 794.679L294.105 795.513ZM306.349 766.348C308.233 761.46 310.069 756.498 311.858 751.471L309.974 750.8C308.19 755.812 306.36 760.757 304.483 765.628L306.349 766.348ZM316.976 736.539C318.623 731.549 320.228 726.504 321.792 721.41L319.88 720.823C318.32 725.904 316.719 730.936 315.077 735.912L316.976 736.539ZM326.277 706.288C327.727 701.229 329.139 696.13 330.513 690.997L328.582 690.48C327.21 695.601 325.801 700.689 324.355 705.737L326.277 706.288ZM334.475 675.721C335.757 670.613 337.005 665.479 338.219 660.324L336.273 659.866C335.06 665.011 333.815 670.136 332.535 675.234L334.475 675.721ZM341.738 644.922C342.878 639.778 343.985 634.62 345.062 629.454L343.104 629.046C342.029 634.204 340.923 639.354 339.785 644.489L341.738 644.922ZM348.2 613.948C349.216 608.775 350.203 603.601 351.16 598.43L349.194 598.066C348.237 603.23 347.252 608.397 346.238 613.562L348.2 613.948ZM353.967 582.839C354.875 577.644 355.755 572.459 356.609 567.29L354.636 566.964C353.783 572.127 352.904 577.306 351.997 582.494L353.967 582.839ZM359.124 551.625C359.938 546.413 360.725 541.223 361.486 536.063L359.508 535.771C358.747 540.926 357.961 546.11 357.148 551.316L359.124 551.625ZM363.745 520.327C364.474 515.105 365.177 509.92 365.857 504.779L363.874 504.517C363.195 509.653 362.492 514.833 361.764 520.05L363.745 520.327ZM367.89 488.965C368.547 483.709 369.18 478.508 369.789 473.37L367.803 473.134C367.195 478.268 366.562 483.465 365.905 488.717L367.89 488.965ZM371.614 457.567C372.212 452.253 372.785 447.02 373.334 441.876L371.346 441.663C370.796 446.804 370.224 452.033 369.627 457.343L371.614 457.567ZM374.969 426.192C375.519 420.788 376.043 415.502 376.543 410.346L374.553 410.153C374.052 415.306 373.529 420.589 372.979 425.989L374.969 426.192ZM378.028 394.746C378.535 389.305 379.016 384.042 379.474 378.975L377.482 378.795C377.025 383.861 376.544 389.122 376.036 394.56L378.028 394.746ZM380.894 363.099C381.389 357.52 381.855 352.253 382.298 347.326L380.306 347.147C379.863 352.076 379.397 357.344 378.902 362.922L380.894 363.099ZM383.751 331.573C384.006 328.923 384.253 326.43 384.495 324.103L382.505 323.897C382.263 326.23 382.016 328.728 381.76 331.381L383.751 331.573ZM384.495 324.103C384.764 321.505 385.044 318.9 385.334 316.29L383.346 316.069C383.055 318.684 382.775 321.293 382.505 323.897L384.495 324.103ZM387.198 300.657C387.86 295.468 388.568 290.267 389.326 285.061L387.347 284.773C386.587 289.991 385.877 295.204 385.214 300.404L387.198 300.657ZM391.743 269.515C392.6 264.346 393.51 259.179 394.479 254.021L392.514 253.652C391.542 258.825 390.629 264.006 389.77 269.188L391.743 269.515ZM397.563 238.594C398.652 233.461 399.805 228.345 401.024 223.252L399.079 222.786C397.856 227.897 396.699 233.03 395.606 238.179L397.563 238.594ZM404.898 208.009C406.265 202.936 407.705 197.893 409.221 192.888L407.306 192.309C405.784 197.334 404.339 202.397 402.967 207.489L404.898 208.009ZM414.028 177.92C415.721 172.944 417.497 168.014 419.36 163.137L417.492 162.424C415.619 167.324 413.835 172.277 412.135 177.276L414.028 177.92ZM425.258 148.579C427.332 143.746 429.502 138.975 431.77 134.276L429.969 133.406C427.687 138.134 425.506 142.931 423.42 147.79L425.258 148.579ZM438.933 120.298C441.442 115.684 444.058 111.151 446.786 106.706L445.081 105.66C442.334 110.135 439.701 114.699 437.176 119.342L438.933 120.298ZM455.366 93.5674C458.358 89.2618 461.47 85.0552 464.706 80.956L463.136 79.7168C459.874 83.8489 456.738 88.0882 453.724 92.4262L455.366 93.5674ZM474.816 68.9641C478.312 65.0821 481.94 61.3162 485.702 57.6744L484.311 56.2373C480.515 59.9116 476.856 63.7105 473.33 67.6255L474.816 68.9641ZM497.344 47.178C501.327 43.8375 505.447 40.6258 509.709 37.551L508.539 35.9291C504.237 39.0328 500.079 42.2744 496.059 45.6457L497.344 47.178ZM522.751 28.8517C527.164 26.1375 531.715 23.5594 536.409 21.1248L535.488 19.3494C530.751 21.8064 526.157 24.4085 521.703 27.1481L522.751 28.8517ZM550.567 14.4132C555.295 12.3736 560.157 10.4697 565.156 8.70806L564.491 6.82176C559.449 8.59846 554.545 10.5189 549.775 12.5768L550.567 14.4132ZM580.103 3.98622C582.616 3.28042 585.162 2.60837 587.74 1.97075L587.26 0.0292466C584.662 0.671835 582.096 1.34921 579.562 2.06069L580.103 3.98622Z" fill="#9261F8"/>
</svg>
