<?xml version="1.0" encoding="utf-8"?>
<!-- Generator: Adobe Illustrator 24.0.2, SVG Export Plug-In . SVG Version: 6.00 Build 0)  -->
<svg version="1.1" id="Layer_1" xmlns="http://www.w3.org/2000/svg" xmlns:xlink="http://www.w3.org/1999/xlink" x="0px" y="0px"
	 viewBox="0 0 387.1 186.4" style="enable-background:new 0 0 387.1 186.4;" xml:space="preserve">
<style type="text/css">
	.st0{fill:url(#SVGID_1_);}
	.st1{fill:url(#SVGID_2_);}
	.st2{fill:#914FF7;}
	.st3{fill:url(#SVGID_3_);}
	.st4{enable-background:new    ;}
	.st5{fill:#00F3B3;}
</style>
<linearGradient id="SVGID_1_" gradientUnits="userSpaceOnUse" x1="294.0732" y1="181.3439" x2="335.0932" y2="147.4839" gradientTransform="matrix(1 0 0 -1 6.71 246.47)">
	<stop  offset="0.23" style="stop-color:#00F3B3"/>
	<stop  offset="0.37" style="stop-color:#00E5B3"/>
	<stop  offset="0.63" style="stop-color:#00C0B3"/>
	<stop  offset="0.95" style="stop-color:#008BB3"/>
</linearGradient>
<path class="st0" d="M302.7,85.7c-6.2-6-6.3-16-0.3-22.1s16-6.3,22.1-0.3c0.1,0.1,0.2,0.2,0.3,0.3l14.9,14.9l-22.1,22.2L302.7,85.7z
	"/>
<linearGradient id="SVGID_2_" gradientUnits="userSpaceOnUse" x1="-796.8356" y1="-614.209" x2="-755.8157" y2="-648.079" gradientTransform="matrix(6.123234e-17 -1 -1 -6.123234e-17 -309.89 -652.03)">
	<stop  offset="0.23" style="stop-color:#00F3B3"/>
	<stop  offset="0.37" style="stop-color:#00E5B3"/>
	<stop  offset="0.63" style="stop-color:#00C0B3"/>
	<stop  offset="0.95" style="stop-color:#008BB3"/>
</linearGradient>
<path class="st1" d="M324.9,142.9c-6.3,5.9-16.2,5.6-22.1-0.7c-5.7-6-5.7-15.4,0-21.5l14.9-14.9l22.1,22.2L324.9,142.9z"/>
<path class="st2" d="M382.5,121.2c6.1,6.1,6.1,16,0,22.2l-0.6,0.6c-6.2,5.6-15.7,5.3-21.6-0.6L343,126l-20.3-20.3
	c-0.1-0.1-0.1-0.1-0.2-0.2c-1.1-1.4-1-3.4,0.2-4.7L343,80.5l5.4-5.4l12-12c5.9-5.9,15.4-6.1,21.5-0.6c0.2,0.2,0.4,0.4,0.6,0.6
	c6.1,6.1,6.1,16,0,22.1c0,0,0,0,0,0l-18,18L382.5,121.2z"/>
<linearGradient id="SVGID_3_" gradientUnits="userSpaceOnUse" x1="383.47" y1="143.0999" x2="349.54" y2="143.7399" gradientTransform="matrix(1 0 0 -1 6.71 246.47)">
	<stop  offset="0.22" style="stop-color:#9161F7"/>
	<stop  offset="0.49" style="stop-color:#8653F7"/>
	<stop  offset="1" style="stop-color:#682FF7"/>
</linearGradient>
<path class="st3" d="M382.5,121.2c6.1,6.1,6.1,16,0,22.2l-0.6,0.6l-0.6-0.6L363.9,126l-20.3-20.3l-0.2-0.2c-0.3-0.4-0.5-0.8-0.6-1.2
	c-0.2-0.6-0.2-1.3,0-1.9c0.1-0.6,0.4-1.1,0.8-1.6l20.3-20.3l5.4-5.4l12-12c0.2-0.2,0.4-0.4,0.6-0.6c0.2,0.2,0.4,0.4,0.6,0.6
	c6.1,6.1,6.1,16,0,22.1c0,0,0,0,0,0l-18,18L382.5,121.2z"/>
<g class="st4">
	<path class="st5" d="M29.9,84.1L8.6,80.3c2.4-8.6,6.5-15,12.4-19.1c5.9-4.1,14.6-6.2,26.2-6.2c10.5,0,18.3,1.2,23.5,3.7
		c5.1,2.5,8.8,5.6,10.9,9.5c2.1,3.8,3.1,10.9,3.1,21.1l-0.3,27.5c0,7.8,0.4,13.6,1.1,17.3c0.8,3.7,2.2,7.7,4.2,12H66.4
		c-0.6-1.6-1.4-3.9-2.3-7c-0.4-1.4-0.7-2.3-0.8-2.8c-4,3.9-8.3,6.9-12.9,8.8c-4.6,2-9.5,2.9-14.7,2.9c-9.2,0-16.4-2.5-21.7-7.5
		c-5.3-5-7.9-11.3-7.9-18.9c0-5,1.2-9.5,3.6-13.5c2.4-3.9,5.8-7,10.1-9.1c4.3-2.1,10.6-3.9,18.7-5.5c11-2.1,18.7-4,22.9-5.8v-2.3
		c0-4.5-1.1-7.8-3.4-9.7c-2.2-1.9-6.5-2.9-12.7-2.9c-4.2,0-7.5,0.8-9.8,2.5C33.3,77.1,31.4,80,29.9,84.1z M61.5,103.3
		c-3,1-7.8,2.2-14.3,3.6c-6.5,1.4-10.8,2.8-12.8,4.1c-3.1,2.2-4.6,4.9-4.6,8.3c0,3.3,1.2,6.2,3.7,8.6c2.5,2.4,5.6,3.6,9.4,3.6
		c4.2,0,8.3-1.4,12.2-4.2c2.9-2.1,4.7-4.7,5.6-7.8c0.6-2,0.9-5.8,0.9-11.5V103.3z"/>
	<path class="st5" d="M107.2,57h22V70c2.9-4.5,6.7-8.1,11.6-10.9c4.9-2.8,10.3-4.2,16.2-4.2c10.3,0,19.1,4.1,26.3,12.2
		c7.2,8.1,10.8,19.4,10.8,33.9c0,14.9-3.6,26.4-10.9,34.7c-7.3,8.3-16.1,12.4-26.4,12.4c-4.9,0-9.4-1-13.4-2.9
		c-4-2-8.2-5.3-12.6-10.1v44.9h-23.6V57z M130.5,100c0,10,2,17.4,6,22.2c4,4.8,8.8,7.2,14.5,7.2c5.5,0,10-2.2,13.7-6.6
		c3.6-4.4,5.5-11.6,5.5-21.6c0-9.3-1.9-16.3-5.6-20.8c-3.7-4.5-8.4-6.8-13.9-6.8c-5.8,0-10.5,2.2-14.3,6.7
		C132.4,84.7,130.5,91.3,130.5,100z"/>
	<path class="st5" d="M264.4,117.7l23.5,3.9c-3,8.6-7.8,15.2-14.3,19.7c-6.5,4.5-14.7,6.8-24.5,6.8c-15.5,0-27-5.1-34.4-15.2
		c-5.9-8.1-8.8-18.3-8.8-30.7c0-14.8,3.9-26.3,11.6-34.7c7.7-8.4,17.5-12.5,29.3-12.5c13.3,0,23.7,4.4,31.4,13.1
		c7.7,8.8,11.3,22.2,11,40.2h-59.1c0.2,7,2.1,12.4,5.7,16.3c3.6,3.9,8.2,5.8,13.6,5.8c3.7,0,6.8-1,9.3-3
		C261.2,125.4,263.1,122.2,264.4,117.7z M265.8,93.9c-0.2-6.8-1.9-12-5.3-15.6c-3.4-3.6-7.4-5.3-12.2-5.3c-5.1,0-9.4,1.9-12.8,5.6
		c-3.4,3.7-5,8.8-5,15.3H265.8z"/>
</g>
</svg>
