<svg xmlns="http://www.w3.org/2000/svg" width="920" height="142" fill="none" viewBox="0 0 920 142">
  <path fill="#9261F8" d="m150.494.496.684-.73-.684.73Zm767.197 95.691a1 1 0 0 0-1.146-.828l-8.885 1.432a1 1 0 0 0 .318 1.975l7.898-1.273 1.273 7.898a1 1 0 0 0 1.974-.318l-1.432-8.886ZM.336-258.514c-.026 2.072.086 4.639.368 7.661l1.991-.186c-.277-2.97-.384-5.465-.36-7.45l-2-.025Zm2.63 22.866a239.667 239.667 0 0 0 3.42 14.912l1.934-.506a237.839 237.839 0 0 1-3.39-14.787l-1.964.381Zm7.686 29.612a338.619 338.619 0 0 0 4.968 14.469l1.877-.691a336.637 336.637 0 0 1-4.939-14.384l-1.906.606Zm10.554 28.714a400.537 400.537 0 0 0 6.159 14.04l1.816-.838a398.425 398.425 0 0 1-6.128-13.97l-1.847.768Zm12.795 27.765a446.993 446.993 0 0 0 7.153 13.56l1.752-.963a446.206 446.206 0 0 1-7.12-13.499l-1.785.902Zm14.714 26.803a487.581 487.581 0 0 0 8 13.024l1.687-1.073a485.149 485.149 0 0 1-7.966-12.971l-1.721 1.02Zm16.412 25.82a524.138 524.138 0 0 0 8.768 12.511l1.621-1.171a522.081 522.081 0 0 1-8.735-12.464l-1.654 1.124Zm17.882 24.753a559.512 559.512 0 0 0 9.457 11.993l1.553-1.26a557.526 557.526 0 0 1-9.422-11.95l-1.588 1.217Zm19.235 23.732c3.26 3.81 6.62 7.639 10.082 11.481l1.486-1.338a594.547 594.547 0 0 1-10.048-11.443l-1.52 1.3Zm20.45 22.704c3.452 3.645 6.997 7.3 10.638 10.964l1.419-1.41a632.248 632.248 0 0 1-10.605-10.93l-1.452 1.376Zm21.533 21.672a675.482 675.482 0 0 0 5.582 5.298l1.369-1.459a657.338 657.338 0 0 1-5.565-5.282l-1.386 1.443Zm5.582 5.298a243.732 243.732 0 0 0 5.892 5.346l1.32-1.502a240.37 240.37 0 0 1-5.843-5.303l-1.369 1.459Zm18.401 15.659a301.554 301.554 0 0 0 12.938 9.482l1.14-1.644a300.034 300.034 0 0 1-12.853-9.419l-1.225 1.58Zm26.378 18.331a384.062 384.062 0 0 0 13.928 8.302l.988-1.739a381.495 381.495 0 0 1-13.855-8.258l-1.061 1.695Zm27.987 15.942a475.912 475.912 0 0 0 14.429 7.188l.862-1.805a473.302 473.302 0 0 1-14.368-7.157l-.923 1.774Zm29.089 13.91a577.964 577.964 0 0 0 14.77 6.258l.755-1.852a571.683 571.683 0 0 1-14.719-6.236l-.806 1.83Zm29.84 12.174a687.31 687.31 0 0 0 15.03 5.479l.664-1.887a684.084 684.084 0 0 1-14.987-5.463l-.707 1.87Zm30.314 10.663a797.26 797.26 0 0 0 15.305 4.836l.584-1.913a793.897 793.897 0 0 1-15.267-4.824l-.622 1.901Zm30.752 9.388a905.398 905.398 0 0 0 15.506 4.262l.513-1.933a907.75 907.75 0 0 1-15.471-4.253l-.548 1.924Zm31.084 8.257a1016.37 1016.37 0 0 0 15.653 3.745l.45-1.949a1009.584 1009.584 0 0 1-15.622-3.737l-.481 1.941Zm31.34 7.243a1128.863 1128.863 0 0 0 15.76 3.272l.393-1.961a1110.785 1110.785 0 0 1-15.733-3.267l-.42 1.956Zm31.539 6.318a1214.67 1214.67 0 0 0 15.84 2.836l.34-1.971c-5.286-.91-10.558-1.854-15.814-2.832l-.366 1.967Zm31.699 5.464c5.291.842 10.592 1.652 15.897 2.429l.29-1.979c-5.297-.776-10.59-1.584-15.873-2.425l-.314 1.975Zm31.825 4.664a1353.23 1353.23 0 0 0 15.939 2.043l.242-1.985a1351.862 1351.862 0 0 1-15.915-2.04l-.266 1.982Zm31.928 3.903c5.328.589 10.65 1.146 15.964 1.671l.197-1.99a1401.816 1401.816 0 0 1-15.942-1.669l-.219 1.988Zm32.008 3.167c5.342.468 10.671.904 15.983 1.309l.152-1.994c-5.305-.405-10.626-.84-15.96-1.307l-.175 1.992Zm32.072 2.444c5.357.348 10.694.664 16.007.949l.107-1.997c-5.305-.285-10.635-.6-15.985-.948l-.129 1.996Zm32.116 1.72c5.377.227 10.724.421 16.037.584l.061-2c-5.305-.162-10.645-.356-16.014-.582l-.084 1.998Zm32.139.98c5.401.101 10.762.168 16.079.203l.013-2c-5.308-.035-10.661-.102-16.055-.202l-.037 1.999Zm32.135.205a1198.09 1198.09 0 0 0 16.133-.206l-.039-2c-5.312.104-10.683.173-16.107.206l.013 2Zm32.084-.628c5.473-.183 10.876-.404 16.202-.662l-.097-1.998c-5.316.258-10.709.479-16.172.662l.067 1.998Zm32.225-1.568a907.004 907.004 0 0 0 16.004-1.176l-.165-1.993c-5.226.431-10.552.823-15.968 1.173l.129 1.996Zm32.12-2.664a713.472 713.472 0 0 0 15.939-1.812l-.248-1.984c-5.169.647-10.47 1.25-15.895 1.806l.204 1.99Zm31.775-3.999a514.873 514.873 0 0 0 16.004-2.681l-.363-1.967a509.86 509.86 0 0 1-15.941 2.67l.3 1.978Zm31.837-5.913a309.038 309.038 0 0 0 15.642-3.939l-.541-1.925a307.445 307.445 0 0 1-15.541 3.913l.44 1.951Zm31.023-8.85c5.491-1.998 10.457-4.116 14.853-6.351l-.906-1.782c-4.311 2.191-9.2 4.278-14.631 6.254l.684 1.879Zm28.402-15.125c2.225-1.917 4.099-3.91 5.594-5.978l-1.621-1.171c-1.388 1.92-3.15 3.8-5.278 5.633l1.305 1.516Z"/>
</svg>
