<svg id="Layer_1" data-name="Layer 1" xmlns="http://www.w3.org/2000/svg" xmlns:xlink="http://www.w3.org/1999/xlink" viewBox="0 0 184.3 185.29"><defs><style>.cls-1{fill:url(#linear-gradient);}.cls-2{fill:url(#linear-gradient-2);}.cls-3{fill:#914ff7;}.cls-4{fill:url(#linear-gradient-3);}</style><linearGradient id="linear-gradient" x1="5.51" y1="13.78" x2="90.45" y2="83.9" gradientUnits="userSpaceOnUse"><stop offset="0.23" stop-color="#00f3b3"/><stop offset="0.37" stop-color="#00e5b3"/><stop offset="0.63" stop-color="#00c0b3"/><stop offset="0.95" stop-color="#008bb3"/></linearGradient><linearGradient id="linear-gradient-2" x1="-102.05" y1="-39.04" x2="-17.11" y2="31.07" gradientTransform="translate(51.85 76.66) rotate(-90)" xlink:href="#linear-gradient"/><linearGradient id="linear-gradient-3" x1="190.61" y1="92.96" x2="120.36" y2="91.63" gradientUnits="userSpaceOnUse"><stop offset="0.22" stop-color="#9161f7"/><stop offset="0.49" stop-color="#8653f7"/><stop offset="1" stop-color="#682ff7"/></linearGradient></defs><path class="cls-1" d="M9.5,56.34A32.43,32.43,0,0,1,55.36,10.47L86.28,41.39,40.42,87.25Z" transform="translate(0)"/><path class="cls-2" d="M55.36,174.72A32.43,32.43,0,1,1,9.49,128.86L40.42,97.94,86.28,143.8Z" transform="translate(0)"/><path class="cls-3" d="M174.79,129.92a32.43,32.43,0,0,1,0,45.87c-.4.4-.8.78-1.22,1.16a32.42,32.42,0,0,1-44.64-1.16l-36-36-42-42a3.8,3.8,0,0,1-.42-.48,7.59,7.59,0,0,1,.42-9.7l42-42L104.1,34.32,128.93,9.49a32.45,32.45,0,0,1,44.64-1.16c.42.38.82.76,1.22,1.16a32.43,32.43,0,0,1,0,45.87L137.51,92.64Z" transform="translate(0)"/><path class="cls-4" d="M174.79,129.92a32.43,32.43,0,0,1,0,45.87c-.4.4-.8.78-1.22,1.16-.41-.37-.83-.76-1.23-1.16l-36-36-42-42a4.73,4.73,0,0,1-.42-.48,6.86,6.86,0,0,1-1.24-2.49,7.88,7.88,0,0,1,1.66-7.21l42-42,11.21-11.22L172.34,9.49c.4-.4.82-.79,1.23-1.16.42.38.82.76,1.22,1.16a32.43,32.43,0,0,1,0,45.87L137.51,92.64Z" transform="translate(0)"/></svg>